<svg width="80" height="80" viewBox="0 0 80 80" fill="none" xmlns="http://www.w3.org/2000/svg">
<rect width="80" height="80" rx="24" fill="black"/>
<path d="M33.8471 22.4915C36.5818 17.8362 43.4182 17.8362 46.1529 22.4915L62.019 49.5016C65.3695 55.2055 59.5605 61.8792 53.3088 59.5085L42.5573 55.4315C40.9116 54.8074 39.0884 54.8074 37.4427 55.4315L26.6912 59.5085C20.4395 61.8792 14.6305 55.2055 17.981 49.5016L33.8471 22.4915ZM41.5368 35.6431C40.8525 34.4825 39.1475 34.4825 38.4632 35.6431L32.6831 45.4469C31.843 46.8718 33.2932 48.5426 34.8571 47.9518L39.3627 46.2496C39.773 46.0946 40.2271 46.0946 40.6373 46.2496L45.1429 47.9518C46.7068 48.5426 48.1571 46.8718 47.3169 45.4469L41.5368 35.6431Z" fill="white"/>
</svg>
